<svg id="Ebene_1" data-name="Ebene 1" xmlns="http://www.w3.org/2000/svg" width="41.5" height="41.821" viewBox="0 0 41.5 41.821">
  <defs>
    <style>
      .cls-1 {
        fill: #ef9a0a;
      }

      .cls-2 {
        fill: #003c46;
      }

      .cls-3 {
        fill: #fff;
      }
    </style>
  </defs>
  <title>facebook</title>
  <path class="cls-1" d="M27.266,1.689C25.165.643,5.883-2.852,2.352,4.943S-.987,35.01,4.664,39.881s24.015-.73,28.253-2.679S52.693,14.354,27.266,1.689"/>
  <path class="cls-2" d="M25.27,15.289l4.716-.084a1,1,0,0,0,.982-.986c.043-3.342-1.593-9.765-8.094-10.157-3.7-.223-6.6.652-8.635,2.6C12.018,8.788,10.93,12.1,11,16.523l.012.736-3,.05a1,1,0,0,0-.983,1.017l.083,5a1,1,0,0,0,.951.982l3.157.155c.28,2.441,1.07,9.449,1.1,11.042l.016,1a1,1,0,0,0,1.017.984l6-.1a1,1,0,0,0,.983-1.016l-.219-13.131c.874-.108,2.178-.168,3-.182a1,1,0,0,0,.96-1.212l-1.083-4.983a1,1,0,0,0-1.081-.782l-2.015.212a3.536,3.536,0,0,1,.486-2.087,2.245,2.245,0,0,1,1.674-.873,2.42,2.42,0,0,1,1.847.315,1.1,1.1,0,0,1,.349.663,1,1,0,0,0,1.018.979"/>
  <path class="cls-3" d="M13.336,38.486a2,2,0,0,1-2-1.965l-.016-1c-.023-1.4-.678-7.313-.994-10.1l-2.309-.113a2,2,0,0,1-1.9-1.964l-.083-5A2,2,0,0,1,8,16.309l2-.033c-.03-4.577,1.162-8.054,3.546-10.336,2.244-2.149,5.41-3.113,9.387-2.875,7.253.437,9.081,7.5,9.034,11.167A1.988,1.988,0,0,1,30,16.2l-4.715.084a2.047,2.047,0,0,1-2.03-1.851c-.077-.086-.395-.2-1.081-.113a1.246,1.246,0,0,0-.978.457,1.388,1.388,0,0,0-.182.387l.789-.083a2,2,0,0,1,2.164,1.564l1.083,4.983a2,2,0,0,1-1.921,2.424c-.558.009-1.315.04-2,.091l.2,12.206a2,2,0,0,1-1.967,2.032l-6,.1ZM21.773,5.028A9.524,9.524,0,0,0,14.93,7.384c-2.011,1.925-3,4.995-2.926,9.123l.012.736a1,1,0,0,1-.983,1.016l-3,.05.083,5,3.156.154a1,1,0,0,1,.945.885c.322,2.814,1.076,9.533,1.1,11.14l.016,1,6-.1-.219-13.13A1,1,0,0,1,20,22.247c.89-.11,2.2-.175,3.1-.19l-1.083-4.982L20,17.287a1.019,1.019,0,0,1-.762-.241,1,1,0,0,1-.343-.722,4.5,4.5,0,0,1,.669-2.7,3.226,3.226,0,0,1,2.37-1.288,3.293,3.293,0,0,1,2.623.553,2.04,2.04,0,0,1,.693,1.417v-.021l4.716-.084c.038-3.011-1.407-8.8-7.155-9.145Q22.282,5.028,21.773,5.028Z"/>
</svg>
