<!-- Generator: Adobe Illustrator 21.1.0, SVG Export Plug-In  -->
<svg version="1.1"
	 xmlns="http://www.w3.org/2000/svg" xmlns:xlink="http://www.w3.org/1999/xlink" xmlns:a="http://ns.adobe.com/AdobeSVGViewerExtensions/3.0/"
	 x="0px" y="0px" width="780.489px" height="913.577px" viewBox="0 0 780.489 913.577"
	 style="enable-background:new 0 0 780.489 913.577;" xml:space="preserve">
<style type="text/css">
	.st0{fill:#FFFFFF;}
</style>
<defs>
</defs>
<g>
	<path class="st0" d="M318.107,875.63c10.923,8.91,23.434,15.7,36.504,20.862c13.092,5.163,26.771,8.739,40.613,11.215
		c27.729,4.897,56.068,5.583,84.112,3.717c28.059-1.936,55.951-6.478,83.104-13.758c13.569-3.66,26.952-8.03,39.95-13.344
		c3.222-1.391,6.461-2.745,9.645-4.217c3.15-1.54,6.365-2.954,9.433-4.653l4.639-2.47l4.411-2.799l2.205-1.398
		c0.726-0.482,1.387-1.059,2.083-1.584l4.128-3.221c10.781-8.913,20.019-19.606,28.479-30.774c8.424-11.22,16.15-22.975,23.245-35.1
		c1.816-3.006,3.463-6.112,5.202-9.163c1.733-3.056,3.441-6.125,5.036-9.257l4.885-9.339l4.631-9.47l2.309-4.737l2.193-4.793
		l4.384-9.587l4.145-9.694c1.397-3.224,2.766-6.461,4.041-9.737c21.055-52.123,36.295-106.67,44.441-162.274
		c3.855-27.817,5.863-55.928,4.932-83.97l-0.59-10.499c-0.115-1.749-0.16-3.503-0.325-5.247l-0.533-5.228
		c-0.376-3.482-0.658-6.977-1.113-10.449l-1.589-10.383c-2.152-13.835-5.764-27.414-9.884-40.808
		c-8.443-26.752-19.658-52.605-32.525-77.555c-12.92-24.937-27.559-48.981-43.583-72.051
		c-16.045-23.059-33.496-45.139-52.231-66.065c-18.736-20.922-38.76-40.703-60.105-58.947
		c-42.59-36.521-90.539-67.17-142.773-87.737c-26.108-10.221-53.229-17.868-80.887-22.432c-27.671-4.535-55.817-5.767-83.812-4.028
		c-27.971,1.771-55.88,6.087-82.551,14.628c-26.602,8.549-51.915,21.628-73.031,39.949c-10.498,9.189-19.992,19.532-28.093,30.903
		c-8.135,11.341-14.952,23.623-20.483,36.455c-11.106,25.694-17.165,53.377-20.054,81.233c-2.88,27.908-2.639,56.088-0.77,84.112
		c0.923,14.021,2.276,28.016,3.821,41.997l1.163,10.493l0.999,10.552c0.396,3.513,0.505,7.047,0.714,10.573
		c0.146,3.529,0.485,7.051,0.471,10.586c0.441,14.128-0.095,28.263-1.112,42.347c-1.092,14.084-3.007,28.087-5.374,41.999
		c-4.768,27.838-12.072,55.135-19.794,82.214c-3.854,13.546-7.828,27.051-11.375,40.652c-3.523,13.598-6.66,27.321-8.214,41.237
		c-0.658,6.954-1.103,13.96-0.52,20.907c0.1,3.493,0.787,6.909,1.283,10.351c0.364,1.697,0.838,3.369,1.251,5.055
		c0.23,0.837,0.389,1.696,0.677,2.513l0.903,2.44l0.902,2.441c0.286,0.82,0.593,1.63,1.017,2.39l2.337,4.648
		c0.798,1.538,1.86,2.925,2.776,4.396l1.425,2.177c0.508,0.706,1.076,1.373,1.611,2.061l3.263,4.095l3.521,3.882
		c1.146,1.321,2.384,2.555,3.646,3.768l3.752,3.668c10.329,9.464,21.791,17.659,33.648,25.178
		c11.87,7.519,24.184,14.338,36.594,20.963c24.854,13.199,50.169,25.554,75.101,38.655c24.966,13.033,49.563,26.809,73.374,41.858
		c11.88,7.564,23.544,15.462,34.979,23.679C296.165,857.978,307.259,866.656,318.107,875.63
		c-10.895-8.918-22.031-17.536-33.47-25.742c-11.474-8.154-23.173-15.988-35.085-23.486c-23.876-14.917-48.525-28.555-73.545-41.452
		c-24.988-12.965-50.358-25.184-75.311-38.271c-12.46-6.569-24.835-13.337-36.794-20.826c-11.947-7.49-23.527-15.673-34.021-25.189
		l-3.818-3.693c-1.284-1.22-2.54-2.467-3.708-3.804l-3.584-3.929l-3.329-4.153c-0.547-0.698-1.124-1.372-1.645-2.092l-1.475-2.235
		c-0.949-1.51-2.041-2.936-2.869-4.517l-2.42-4.779c-0.437-0.782-0.757-1.615-1.055-2.457l-0.936-2.509l-0.935-2.51
		c-0.299-0.84-0.467-1.72-0.706-2.579c-0.429-1.729-0.92-3.448-1.298-5.188c-0.522-3.521-1.231-7.027-1.344-10.587
		c-0.614-7.096-0.183-14.209,0.463-21.256c1.533-14.091,4.654-27.906,8.148-41.562c3.52-13.658,7.458-27.184,11.27-40.733
		c7.638-27.082,14.836-54.308,19.498-82.023c2.315-13.849,4.179-27.779,5.223-41.778c0.969-13.998,1.462-28.038,0.982-42.063
		c0.005-3.509-0.343-7.005-0.498-10.508c-0.217-3.5-0.335-7.007-0.739-10.492l-1.022-10.471l-1.193-10.493
		c-1.589-14.002-2.988-28.039-3.956-42.115c-1.93-28.139-2.186-56.487,0.685-84.631c2.887-28.091,8.973-56.089,20.216-82.174
		c5.6-13.025,12.516-25.518,20.783-37.067c8.232-11.579,17.891-22.125,28.571-31.49c21.483-18.677,47.21-31.985,74.141-40.667
		c27.006-8.675,55.18-13.052,83.365-14.864c28.209-1.781,56.662-0.566,84.586,3.985c27.92,4.583,55.297,12.264,81.629,22.561
		c52.656,20.792,100.891,51.705,143.688,88.473c21.449,18.369,41.558,38.273,60.366,59.316
		c18.808,21.048,36.319,43.249,52.418,66.432c16.078,23.195,30.765,47.367,43.729,72.449c12.912,25.098,24.171,51.11,32.657,78.088
		c4.141,13.507,7.776,27.227,9.943,41.228l1.595,10.494c0.456,3.507,0.738,7.034,1.114,10.55l0.532,5.278
		c0.164,1.76,0.212,3.528,0.321,5.292l0.564,10.589c0.856,28.264-1.249,56.527-5.203,84.465
		c-8.346,55.838-23.795,110.501-45.068,162.732c-1.288,3.283-2.671,6.526-4.082,9.757l-4.187,9.713l-4.427,9.608l-2.214,4.803
		l-2.331,4.748l-4.675,9.49l-4.931,9.361c-1.61,3.138-3.334,6.215-5.083,9.279c-1.756,3.059-3.418,6.172-5.251,9.187
		c-7.162,12.158-14.961,23.951-23.475,35.222c-8.559,11.212-17.874,21.993-28.875,30.98l-4.214,3.253
		c-0.711,0.53-1.384,1.111-2.127,1.599l-2.26,1.419l-4.521,2.834l-4.694,2.468c-3.104,1.697-6.347,3.105-9.529,4.639
		c-3.212,1.466-6.478,2.811-9.725,4.194c-13.098,5.276-26.557,9.592-40.19,13.195c-27.28,7.164-55.257,11.57-83.383,13.365
		c-28.111,1.726-56.497,0.892-84.246-4.156c-13.852-2.552-27.534-6.203-40.616-11.441
		C341.471,891.458,328.983,884.596,318.107,875.63"/>
</g>
<g>
	<path class="st0" d="M453.303,913.577c-20.676,0-39.9-1.654-58.238-4.99c-15.039-2.77-28.353-6.521-40.705-11.467
		c-14.083-5.646-26.376-12.754-36.536-21.127c-0.003-0.002-0.005-0.004-0.009-0.007h0l-0.001-0.001v0.001
		c0-0.001-0.001-0.001-0.002-0.002l0,0c0-0.001,0,0-0.001-0.001c-11.511-9.422-22.45-17.835-33.443-25.722
		c-11.447-8.135-23.244-16.032-35.062-23.471c-21.79-13.614-45.835-27.167-73.511-41.433c-11.625-6.031-23.529-12-35.042-17.772
		c-13.237-6.637-26.925-13.5-40.272-20.5c-11.075-5.839-24.11-12.882-36.824-20.844C49.831,717.574,39,709.554,29.572,701.004
		l-3.829-3.702c-1.059-1.007-2.444-2.354-3.734-3.832l-3.578-3.923l-3.348-4.174c-0.191-0.244-0.382-0.481-0.574-0.718
		c-0.37-0.458-0.739-0.916-1.084-1.394l-1.486-2.25c-0.336-0.534-0.684-1.049-1.031-1.564c-0.645-0.956-1.312-1.944-1.861-2.993
		l-2.423-4.784c-0.451-0.807-0.786-1.685-1.079-2.512l-1.869-5.012c-0.204-0.574-0.348-1.158-0.487-1.722
		c-0.074-0.3-0.148-0.599-0.23-0.896c-0.154-0.619-0.312-1.224-0.47-1.829c-0.289-1.104-0.587-2.246-0.834-3.384
		c-0.129-0.868-0.265-1.706-0.399-2.543c-0.426-2.648-0.868-5.388-0.955-8.127c-0.636-7.337-0.152-14.581,0.465-21.312
		c1.625-14.935,5.037-29.427,8.16-41.635c2.727-10.58,5.752-21.249,8.678-31.567c0.867-3.059,1.734-6.117,2.595-9.177
		c7.333-25.997,14.768-53.921,19.487-81.974c2.557-15.299,4.264-28.951,5.218-41.736c1.089-15.735,1.41-29.479,0.981-42.013
		c0.002-2.269-0.144-4.561-0.285-6.778c-0.079-1.242-0.158-2.483-0.213-3.726c-0.056-0.896-0.105-1.799-0.155-2.703
		c-0.139-2.548-0.284-5.184-0.582-7.756l-1.023-10.479l-1.192-10.486c-1.835-16.175-3.093-29.564-3.958-42.135
		c-2.152-31.38-1.927-59.088,0.687-84.709c3.208-31.212,9.832-58.136,20.251-82.31c5.751-13.377,12.76-25.877,20.832-37.152
		c8.082-11.369,17.719-21.99,28.642-31.568c20.387-17.724,45.386-31.437,74.303-40.759c24.929-8.007,52.234-12.876,83.477-14.885
		c28.794-1.819,57.287-0.476,84.69,3.99c27.404,4.499,54.899,12.098,81.722,22.587c50.035,19.757,98.423,49.55,143.82,88.552
		c20.806,17.818,41.131,37.79,60.409,59.358c18.726,20.956,36.373,43.321,52.453,66.477c16.401,23.661,31.124,48.053,43.759,72.5
		c14.029,27.268,24.721,52.834,32.688,78.161c4.915,16.03,8.08,29.15,9.959,41.295l1.596,10.495
		c0.298,2.295,0.525,4.624,0.745,6.876c0.12,1.232,0.24,2.464,0.371,3.695l0.533,5.281c0.108,1.17,0.167,2.354,0.225,3.5
		c0.029,0.604,0.06,1.207,0.097,1.81l0.564,10.593c0.802,26.48-0.901,54.135-5.207,84.554
		c-8.165,54.629-23.338,109.416-45.098,162.842c-1.4,3.571-2.92,7.096-4.086,9.767l-4.186,9.711l-6.646,14.422l-7.011,14.249
		l-4.937,9.371c-1.668,3.251-3.433,6.389-5.091,9.293c-0.624,1.087-1.235,2.18-1.847,3.271c-1.094,1.955-2.225,3.977-3.41,5.928
		c-7.367,12.505-15.275,24.369-23.502,35.26c-10.252,13.431-19.451,23.299-28.951,31.059l-4.224,3.261
		c-0.254,0.189-0.497,0.38-0.74,0.571c-0.451,0.354-0.918,0.722-1.415,1.049l-6.789,4.258l-4.725,2.485
		c-2.173,1.188-4.451,2.253-6.655,3.282c-0.965,0.451-1.929,0.901-2.889,1.363c-2.452,1.121-4.966,2.183-7.396,3.209l-2.347,0.994
		c-12.523,5.045-25.688,9.367-40.254,13.217c-26.873,7.058-54.956,11.56-83.471,13.38
		C470.448,913.301,461.754,913.577,453.303,913.577z M318.4,875.275c10.126,8.259,22.365,15.253,36.38,20.788
		c12.306,4.853,25.562,8.514,40.525,11.19c25.74,4.546,53.218,5.761,84.001,3.711c28.373-1.958,56.304-6.582,83.015-13.743
		c14.439-3.895,27.489-8.254,39.896-13.326l2.285-0.981c2.417-1.036,4.917-2.106,7.341-3.228c0.96-0.469,1.934-0.931,2.908-1.392
		c2.153-1.021,4.381-2.075,6.495-3.246l4.646-2.474l6.586-4.18c0.445-0.296,0.889-0.647,1.317-0.988
		c0.243-0.193,0.486-0.387,0.734-0.574l4.122-3.216c9.396-7.769,18.423-17.523,28.396-30.689
		c8.127-10.824,15.938-22.618,23.214-35.055c1.178-1.948,2.302-3.97,3.388-5.925c0.601-1.08,1.201-2.16,1.812-3.233
		c1.633-2.88,3.373-5.992,5.025-9.238l4.888-9.343l6.935-14.195l6.572-14.37l4.14-9.684c1.148-2.648,2.644-6.145,4.035-9.724
		c21.506-53.237,36.448-107.799,44.415-162.173c4.187-30.216,5.799-57.656,4.927-83.888l-0.589-10.489
		c-0.043-0.643-0.076-1.291-0.109-1.939c-0.055-1.081-0.111-2.199-0.215-3.29l-0.533-5.225c-0.132-1.228-0.253-2.459-0.374-3.691
		c-0.218-2.215-0.443-4.505-0.736-6.745l-1.588-10.374c-1.858-11.949-4.995-24.895-9.869-40.742
		c-7.919-25.094-18.549-50.439-32.494-77.479c-12.577-24.276-27.23-48.501-43.552-72c-15.999-22.994-33.561-45.206-52.196-66.021
		c-19.168-21.406-39.376-41.224-60.061-58.904c-45.062-38.641-93.054-68.133-142.644-87.658
		c-26.584-10.408-53.767-17.947-80.792-22.407c-27.077-4.437-55.238-5.792-83.709-4.022c-30.887,1.956-57.853,6.734-82.439,14.607
		c-28.382,9.121-52.899,22.532-72.87,39.858c-10.684,9.352-20.112,19.723-28.02,30.823c-7.911,11.029-14.786,23.266-20.435,36.37
		c-10.134,23.446-16.87,50.731-20.019,81.098c-2.605,25.241-2.856,52.729-0.769,84.034c0.824,12.513,2.037,25.852,3.819,41.978
		l1.163,10.493l1,10.559c0.294,2.611,0.433,5.278,0.566,7.857c0.047,0.911,0.095,1.822,0.149,2.732
		c0.052,1.253,0.127,2.497,0.203,3.741c0.137,2.249,0.278,4.574,0.269,6.874c0.396,12.659,0.031,26.527-1.113,42.378
		c-1,12.891-2.759,26.643-5.379,42.043c-4.828,28.191-12.372,56.197-19.805,82.263c-0.864,3.038-1.735,6.075-2.605,9.111
		c-2.958,10.317-6.017,20.986-8.767,31.531c-3.132,12.089-6.556,26.435-8.202,41.172c-0.623,6.587-1.118,13.674-0.519,20.817
		c0.076,2.631,0.49,5.251,0.891,7.784c0.133,0.846,0.267,1.692,0.389,2.54c0.227,1.053,0.511,2.149,0.785,3.209
		c0.155,0.601,0.311,1.2,0.458,1.802c0.08,0.289,0.153,0.593,0.227,0.896c0.133,0.549,0.258,1.067,0.437,1.572l1.803,4.876
		c0.313,0.896,0.599,1.629,0.987,2.324l2.346,4.665c0.499,0.963,1.125,1.896,1.732,2.798c0.347,0.518,0.694,1.034,1.023,1.562
		l1.419,2.168c0.312,0.433,0.66,0.865,1.008,1.299c0.195,0.243,0.391,0.486,0.582,0.732l3.259,4.09l3.502,3.86
		c1.199,1.382,2.504,2.668,3.624,3.746l3.755,3.67c9.252,8.478,19.924,16.463,33.573,25.118
		c12.62,7.994,25.565,15.074,36.564,20.945c13.267,7.046,26.894,13.968,40.073,20.66c11.506,5.845,23.404,11.887,35.025,17.994
		c27.642,14.431,51.654,28.128,73.406,41.876c11.82,7.526,23.596,15.498,35.002,23.695
		C296.01,857.297,306.924,865.781,318.4,875.275L318.4,875.275z M291.077,3.442c20.272,0,40.272,1.601,59.717,4.787
		c27.09,4.47,54.335,12.026,80.98,22.458c49.686,19.563,97.766,49.109,142.905,87.816c20.715,17.706,40.952,37.553,60.147,58.99
		c18.66,20.842,36.245,43.084,52.267,66.109c16.344,23.531,31.018,47.79,43.613,72.102c13.97,27.088,24.619,52.48,32.555,77.628
		c4.889,15.894,8.035,28.881,9.9,40.875l1.59,10.384c0.297,2.265,0.522,4.562,0.74,6.785c0.121,1.229,0.242,2.458,0.374,3.685
		l0.534,5.231c0.105,1.114,0.162,2.242,0.218,3.333c0.033,0.644,0.066,1.287,0.108,1.931l0.59,10.504
		c0.874,26.295-0.74,53.787-4.935,84.059c-7.978,54.45-22.939,109.082-44.471,162.382c-1.396,3.588-2.896,7.095-4.046,9.748
		l-4.144,9.692l-6.582,14.391l-6.945,14.218l-4.891,9.35c-1.658,3.258-3.404,6.382-5.043,9.271c-0.61,1.071-1.209,2.148-1.808,3.226
		c-1.091,1.963-2.219,3.992-3.401,5.949c-7.291,12.461-15.121,24.284-23.27,35.138c-10.019,13.227-19.092,23.029-28.555,30.853
		l-4.138,3.229c-0.248,0.188-0.485,0.376-0.723,0.564c-0.443,0.353-0.902,0.718-1.39,1.041l-6.624,4.202l-4.669,2.487
		c-2.133,1.181-4.373,2.242-6.54,3.269c-0.971,0.46-1.941,0.92-2.906,1.392c-2.445,1.13-4.951,2.204-7.374,3.242l-2.291,0.983
		c-12.45,5.091-25.535,9.462-40.013,13.367c-23.668,6.345-48.288,10.702-73.327,12.982c25.061-2.152,49.718-6.386,73.426-12.612
		c14.528-3.84,27.657-8.15,40.136-13.177l2.341-0.992c2.425-1.023,4.933-2.083,7.364-3.194c0.954-0.459,1.922-0.911,2.89-1.363
		c2.19-1.023,4.456-2.082,6.61-3.26l4.701-2.472l6.75-4.235c0.456-0.3,0.907-0.654,1.344-0.998c0.249-0.195,0.498-0.392,0.752-0.581
		l4.208-3.248c9.433-7.705,18.585-17.524,28.791-30.895c8.204-10.86,16.092-22.695,23.444-35.176
		c1.181-1.942,2.308-3.956,3.397-5.903c0.613-1.096,1.227-2.191,1.851-3.28c1.652-2.895,3.411-6.021,5.073-9.26l4.933-9.365
		l7-14.227l6.637-14.4l4.182-9.702c1.165-2.666,2.679-6.181,4.077-9.743c21.734-53.363,36.888-108.079,45.041-162.633
		c4.298-30.362,5.998-57.965,5.198-84.383l-0.563-10.578c-0.037-0.603-0.067-1.209-0.098-1.816
		c-0.057-1.136-0.115-2.311-0.222-3.458l-0.532-5.274c-0.131-1.23-0.252-2.465-0.372-3.7c-0.219-2.245-0.445-4.566-0.74-6.836
		l-1.594-10.484c-1.872-12.099-5.027-25.179-9.928-41.162c-7.95-25.273-18.623-50.792-32.627-78.013
		c-12.617-24.411-27.319-48.769-43.697-72.397c-16.059-23.124-33.683-45.46-52.383-66.388
		c-19.252-21.539-39.547-41.481-60.322-59.273c-45.32-38.936-93.62-68.676-143.559-88.395
		c-26.761-10.465-54.193-18.047-81.534-22.535c-27.333-4.455-55.755-5.793-84.482-3.98c-31.166,2.004-58.398,6.859-83.253,14.843
		c-28.798,9.284-53.688,22.936-73.98,40.576c-10.868,9.53-20.456,20.098-28.498,31.41c-8.034,11.223-15.01,23.665-20.736,36.982
		c-10.381,24.087-16.982,50.922-20.181,82.04c-2.608,25.568-2.832,53.226-0.684,84.553c0.864,12.557,2.12,25.933,3.954,42.094
		l1.193,10.493l1.023,10.478c0.301,2.592,0.446,5.242,0.586,7.804c0.049,0.901,0.099,1.803,0.154,2.705
		c0.055,1.245,0.134,2.48,0.213,3.716c0.142,2.231,0.29,4.539,0.286,6.821c0.43,12.55,0.108,26.325-0.983,42.094
		c-0.956,12.815-2.667,26.495-5.229,41.822c-4.726,28.097-12.169,56.049-19.509,82.071c-0.861,3.06-1.729,6.118-2.596,9.178
		c-2.924,10.312-5.948,20.977-8.672,31.546c-3.115,12.175-6.518,26.627-8.136,41.497c-0.612,6.682-1.093,13.876-0.461,21.166
		c0.086,2.706,0.522,5.415,0.944,8.035c0.136,0.841,0.271,1.683,0.396,2.524c0.237,1.088,0.533,2.221,0.82,3.316
		c0.159,0.608,0.318,1.218,0.47,1.828c0.082,0.292,0.158,0.601,0.234,0.908c0.14,0.567,0.272,1.103,0.459,1.627l1.869,5.013
		c0.282,0.796,0.599,1.63,1.025,2.394l2.429,4.795c0.523,0.999,1.175,1.966,1.806,2.9c0.354,0.523,0.707,1.047,1.042,1.58
		l1.47,2.226c0.325,0.449,0.685,0.894,1.043,1.339c0.194,0.24,0.389,0.48,0.58,0.725l3.326,4.147l3.565,3.908
		c1.272,1.456,2.637,2.784,3.685,3.779l3.821,3.695c9.376,8.503,20.166,16.492,33.945,25.131
		c12.688,7.946,25.705,14.979,36.764,20.809c13.338,6.996,27.022,13.856,40.256,20.492c8.955,4.489,18.146,9.098,27.26,13.763
		c-9.108-4.723-18.294-9.388-27.244-13.934c-13.182-6.694-26.813-13.618-40.088-20.668c-11.014-5.88-23.978-12.971-36.624-20.98
		c-13.696-8.686-24.408-16.702-33.713-25.228l-3.763-3.678c-1.132-1.089-2.456-2.395-3.672-3.796l-3.514-3.875l-3.282-4.116
		c-0.191-0.247-0.384-0.486-0.576-0.726c-0.358-0.446-0.716-0.893-1.049-1.354l-1.436-2.193c-0.329-0.527-0.67-1.036-1.012-1.545
		c-0.62-0.923-1.261-1.878-1.787-2.892l-2.34-4.652c-0.436-0.78-0.758-1.638-1.04-2.445l-1.802-4.873
		c-0.196-0.557-0.333-1.122-0.466-1.669c-0.071-0.295-0.143-0.59-0.223-0.882c-0.15-0.61-0.304-1.206-0.458-1.803
		c-0.276-1.069-0.562-2.175-0.799-3.277c-0.127-0.875-0.26-1.717-0.393-2.559c-0.405-2.562-0.824-5.212-0.9-7.876
		c-0.604-7.19-0.106-14.326,0.522-20.963c1.653-14.804,5.086-29.189,8.227-41.31c2.753-10.557,5.813-21.23,8.773-31.554
		c0.87-3.035,1.741-6.071,2.605-9.109c7.426-26.041,14.962-54.018,19.783-82.165c2.616-15.373,4.372-29.097,5.369-41.958
		c1.142-15.817,1.506-29.653,1.111-42.297c0.009-2.286-0.132-4.596-0.267-6.831c-0.076-1.25-0.152-2.5-0.204-3.75
		c-0.054-0.905-0.101-1.818-0.148-2.731c-0.133-2.565-0.271-5.218-0.563-7.809l-1-10.56l-1.162-10.486
		c-1.784-16.14-2.999-29.491-3.823-42.018c-2.091-31.357-1.839-58.896,0.771-84.189c3.159-30.46,9.917-57.836,20.089-81.368
		c5.675-13.165,12.583-25.459,20.531-36.541c7.949-11.157,17.425-21.581,28.165-30.981c20.065-17.41,44.691-30.881,73.193-40.041
		c24.66-7.897,51.699-12.688,82.663-14.649C274.974,3.694,283.048,3.442,291.077,3.442z"/>
</g>
<g>
	<path class="st0" d="M441.298,866.766c-45.415,0-88.507-9.106-116.506-31.55c-54.992-44.082-112.334-71.687-162.926-96.042
		c-49.669-23.911-92.564-44.562-114.859-73.499c-22.312-28.958-11.653-69.146,1.843-120.026
		c13.42-50.594,30.121-113.56,20.045-187.814c-7.457-54.947-22.973-169.283,37.715-242.679
		c35.287-42.675,92.009-66.417,168.591-70.564c56.578-3.062,113.374,8.452,168.812,34.228
		c48.804,22.69,95.486,55.793,138.749,98.389c37.991,37.405,72.167,81.285,98.834,126.897
		c24.615,42.103,42.04,84.688,49.064,119.909c12.904,64.694,3.079,152.517-26.955,240.948
		c-27.227,80.164-66.165,144.324-99.201,163.454C566.062,850.677,501.637,866.766,441.298,866.766z M325.895,833.841
		c29.144,23.36,78.049,34.173,137.715,30.454c52.137-3.253,105.786-17.586,140.012-37.404
		c32.687-18.929,71.317-82.712,98.414-162.496c29.938-88.146,39.741-175.636,26.896-240.036
		c-6.987-35.034-24.339-77.425-48.858-119.364c-26.589-45.479-60.667-89.233-98.549-126.531
		c-43.118-42.453-89.635-75.441-138.255-98.046c-55.173-25.651-111.688-37.116-167.973-34.065
		c-76.071,4.119-132.368,27.646-167.328,69.927c-60.196,72.8-44.75,186.619-37.327,241.318
		c10.123,74.604-6.628,137.758-20.088,188.503c-13.371,50.411-23.933,90.229-2.15,118.498
		c22.04,28.606,64.761,49.173,114.228,72.986C213.308,761.982,270.746,789.633,325.895,833.841L325.895,833.841z"/>
</g>
<g>
	<path class="st0" d="M430.068,819.508c-38.055,0-73.869-7.492-97.912-25.869c-50.033-38.242-101.828-61.719-147.526-82.432
		c-44.874-20.339-83.629-37.905-104.152-63.308c-20.548-25.432-11.851-61.567-0.84-107.317
		c10.944-45.473,24.565-102.065,14.033-168.185c-7.796-48.944-24.02-150.788,28.701-217.633
		c30.655-38.868,80.854-61.257,149.202-66.545c50.489-3.905,101.479,5.209,151.548,27.095
		c44.074,19.266,86.468,47.879,126.002,85.044c34.716,32.636,66.157,71.137,90.924,111.339
		c22.863,37.112,39.312,74.803,46.314,106.13c12.865,57.542,5.898,136.215-19.112,215.849
		c-22.675,72.194-56.148,130.33-85.278,148.109C546.636,803.356,485.939,819.508,430.068,819.508z M333.18,792.299
		c26.508,20.26,70.413,28.908,123.623,24.351c46.504-3.982,94.129-17.893,124.289-36.302
		c28.802-17.579,61.988-75.349,84.547-147.175c24.926-79.36,31.879-157.716,19.076-214.976
		c-6.964-31.149-23.337-68.657-46.104-105.613c-24.689-40.078-56.033-78.459-90.643-110.995
		c-39.394-37.033-81.625-65.539-125.522-84.728c-49.812-21.773-100.53-30.845-150.743-26.959
		c-67.859,5.25-117.656,27.425-148.007,65.908c-52.263,66.265-36.118,167.616-28.359,216.322
		c10.584,66.452-3.08,123.227-14.059,168.845c-10.902,45.299-19.514,81.078,0.512,105.862
		c20.272,25.092,58.858,42.581,103.537,62.832C231.106,730.421,282.994,753.94,333.18,792.299z"/>
</g>
<g>
	<path class="st0" d="M419.239,772.438c-30.835,0.001-59.612-5.932-79.712-20.381c-45.075-32.402-91.323-51.749-132.127-68.818
		c-40.079-16.767-74.692-31.246-93.444-53.112c-18.786-21.904-12.052-53.988-3.527-94.608c8.469-40.352,19.008-90.571,8.022-148.555
		c-8.137-42.938-25.07-132.287,19.679-192.583c26.021-35.062,69.695-56.1,129.81-62.531c44.408-4.749,89.585,1.966,134.283,19.961
		c39.346,15.841,77.451,39.963,113.257,71.698c31.441,27.866,60.147,60.986,83.016,95.779c21.111,32.12,36.583,64.917,43.566,92.35
		c12.826,50.387,8.72,119.912-11.268,190.748c-18.12,64.223-46.128,116.336-71.352,132.767
		C527.341,756.061,470.458,772.435,419.239,772.438z M295.667,131.982c-9.213,0-18.398,0.489-27.556,1.468
		c-59.649,6.381-102.946,27.204-128.688,61.89c-44.329,59.729-27.484,148.609-19.39,191.323c11.046,58.3,0.47,108.693-8.028,149.185
		c-8.434,40.187-15.096,71.928,3.173,93.229c18.504,21.577,52.955,35.988,92.844,52.676c40.883,17.103,87.221,36.487,132.445,68.997
		c23.871,17.158,62.769,23.64,109.53,18.25c40.87-4.712,82.471-18.199,108.567-35.198c24.916-16.229,52.66-67.985,70.682-131.854
		c19.912-70.571,24.015-139.792,11.256-189.913c-6.94-27.265-22.336-59.889-43.352-91.863
		c-22.791-34.676-51.401-67.685-82.738-95.459c-35.667-31.612-73.615-55.637-112.79-71.409
		C366.392,139.121,330.864,131.982,295.667,131.982z"/>
</g>
<g>
	<path class="st0" d="M408.995,725.635c-23.826,0.001-45.912-4.447-62.088-15.159c-40.116-26.562-80.817-41.78-116.727-55.206
		c-35.284-13.191-65.756-24.585-82.739-42.915c-17.024-18.372-12.255-46.404-6.218-81.894c5.993-35.23,13.452-79.076,2.01-128.925
		c-8.479-36.933-26.123-113.786,10.652-167.532c21.386-31.255,58.535-50.945,110.415-58.521
		c38.321-5.595,77.691-1.281,117.019,12.822c34.617,12.414,68.435,32.045,100.512,58.347
		c55.304,45.347,100.809,107.673,115.929,158.784c12.79,43.231,11.545,103.606-3.416,165.645
		c-13.564,56.251-36.104,102.343-57.42,117.425C508.228,708.808,455.329,725.633,408.995,725.635z M297.236,174.626
		c-10.794,0-21.69,0.764-32.716,2.374c-51.439,7.512-88.237,26.982-109.372,57.87c-36.396,53.192-18.853,129.602-10.423,166.323
		c11.511,50.147,4.023,94.161-1.993,129.525c-5.966,35.073-10.679,62.776,5.832,80.596c16.735,18.062,47.05,29.396,82.151,42.521
		c35.987,13.454,76.775,28.704,117.037,55.364c21.234,14.061,55.131,18.375,95.438,12.15c35.237-5.441,70.813-18.506,92.846-34.095
		c21.03-14.879,43.332-60.621,56.814-116.532c14.899-61.785,16.152-121.871,3.436-164.851
		C571.393,321.721,446.778,174.626,297.236,174.626z"/>
</g>
<g>
	<path class="st0" d="M399.61,679.207c-17.162,0.001-33.012-3.062-45.312-10.312c-35.158-20.723-70.312-31.81-101.328-41.592
		c-30.489-9.616-56.821-17.921-72.035-32.711c-15.265-14.839-12.464-38.817-8.917-69.177c3.517-30.109,7.895-67.581-4.003-109.295
		c-8.822-30.928-27.178-95.285,1.617-142.481c16.748-27.45,47.37-45.792,91.014-54.517c32.232-6.442,65.794-4.533,99.752,5.676
		c29.889,8.985,59.418,24.123,87.769,44.991c48.877,35.978,90.202,86.782,105.28,129.431c12.756,36.074,14.375,87.299,4.443,140.54
		c-9.007,48.279-26.073,88.351-43.48,102.086C489.382,661.596,440.748,679.204,399.61,679.207z M298.717,216.825
		c-12.458,0-25.073,1.186-37.786,3.727c-43.229,8.641-73.528,26.758-90.056,53.847c-28.463,46.652-10.225,110.594-1.459,141.323
		c11.978,41.993,7.582,79.626,4.049,109.863c-3.5,29.961-6.265,53.625,8.486,67.963c14.966,14.55,41.145,22.806,71.458,32.366
		c31.09,9.806,66.329,20.919,101.63,41.726c18.598,10.962,47.487,13.111,81.345,6.054c29.604-6.171,59.156-18.812,77.125-32.99
		c17.146-13.529,34.005-53.256,42.95-101.209c9.886-52.996,8.288-103.947-4.384-139.787
		C527.929,331.415,421.169,216.825,298.717,216.825z"/>
</g>
<g>
	<path class="st0" d="M362.009,626.479c11.057,5.24,23.567,6.318,35.627,5.595c12.132-0.774,24.091-3.376,35.665-7.019
		c11.572-3.673,22.808-8.422,33.452-14.242c5.316-2.918,10.481-6.113,15.386-9.663c4.846-3.608,9.655-7.391,13.212-12.213
		c3.594-4.816,6.394-10.22,8.808-15.756c2.398-5.552,4.45-11.261,6.2-17.064c3.459-11.618,6.026-23.51,7.791-35.514
		c3.566-24,4.447-48.433,2.246-72.582c-1.193-12.059-3.192-24.052-6.412-35.714c-1.708-5.796-3.555-11.564-5.97-17.096
		c-2.388-5.536-5.149-10.916-8.306-16.073c-12.549-20.703-28.998-38.898-47.049-55.013c-18.146-16.058-38.223-29.965-59.785-40.977
		c-21.527-11.029-44.743-18.969-68.687-22.234c-11.955-1.664-24.074-2.168-36.116-1.326c-12.047,0.873-23.935,3.268-35.485,6.795
		c-11.545,3.532-22.801,8.142-33.088,14.41c-10.252,6.254-19.624,14.162-26.516,24.013c-1.829,2.384-3.29,5.007-4.824,7.583
		c-0.751,1.297-1.339,2.681-2.018,4.017l-0.987,2.022l-0.83,2.091c-2.353,5.525-3.842,11.387-4.919,17.293
		c-2.088,11.86-1.841,24.069-0.252,36.034c1.591,11.988,4.512,23.791,8.13,35.359c1.803,5.79,3.776,11.529,5.838,17.242
		c2.11,5.684,4.079,11.521,5.678,17.412c3.186,11.812,5.043,23.955,5.81,36.141c0.813,12.19,0.504,24.407-0.002,36.564
		c-0.436,12.142-1.381,24.34,0.05,36.327c0.426,2.974,0.945,5.947,1.886,8.784c0.392,1.447,1.022,2.799,1.573,4.184
		c0.702,1.306,1.295,2.684,2.181,3.878c3.178,5.056,8.318,8.504,13.473,11.538c10.582,5.831,22.365,9.218,34.083,12.306
		c11.762,3.049,23.64,5.697,35.432,8.698C316.869,608.187,340.225,615.582,362.009,626.479
		c-21.883-10.701-45.268-17.873-68.883-23.562c-11.81-2.892-23.704-5.432-35.518-8.381c-11.774-2.994-23.64-6.272-34.479-12.113
		c-2.655-1.538-5.301-3.131-7.682-5.101c-0.624-0.452-1.203-0.968-1.763-1.513c-0.558-0.543-1.165-1.038-1.679-1.623
		c-1.017-1.181-2.053-2.349-2.869-3.682c-0.931-1.256-1.561-2.689-2.295-4.056c-0.581-1.437-1.239-2.85-1.65-4.343
		c-0.983-2.94-1.524-5.986-1.968-9.023c-1.493-12.222-0.568-24.443-0.175-36.58c0.468-12.145,0.736-24.296-0.108-36.392
		c-0.8-12.091-2.678-24.107-5.866-35.783c-1.607-5.844-3.545-11.538-5.686-17.251c-2.086-5.722-4.086-11.483-5.918-17.302
		c-3.675-11.628-6.663-23.525-8.312-35.66c-1.646-12.11-1.944-24.525,0.153-36.664c1.081-6.046,2.592-12.061,4.99-17.75l0.847-2.151
		l1.007-2.083c0.694-1.377,1.297-2.802,2.065-4.139c1.568-2.657,3.067-5.359,4.94-7.819c7.063-10.161,16.665-18.304,27.11-24.721
		c10.484-6.432,21.908-11.145,33.59-14.759c11.692-3.612,23.787-6.089,36.018-7.012c12.232-0.889,24.545-0.431,36.676,1.243
		c24.287,3.39,47.74,11.504,69.437,22.703c21.732,11.184,41.918,25.263,60.151,41.497c18.139,16.298,34.649,34.659,47.287,55.649
		c3.177,5.227,5.969,10.704,8.378,16.341c2.437,5.631,4.289,11.478,6,17.35c3.221,11.806,5.196,23.906,6.361,36.055
		c2.141,24.326,1.177,48.868-2.481,72.981c-1.812,12.061-4.428,24.011-7.948,35.702c-1.782,5.84-3.869,11.593-6.311,17.201
		c-2.47,5.587-5.292,11.08-9.036,15.986c-3.743,4.969-8.675,8.764-13.585,12.353c-4.985,3.54-10.214,6.71-15.587,9.596
		c-10.757,5.758-22.079,10.424-33.726,14.006c-11.647,3.551-23.665,6.054-35.839,6.721
		C385.555,633.018,373.019,631.82,362.009,626.479"/>
</g>
<g>
	<path class="st0" d="M391.962,633.01c-11.792,0-21.698-2.015-30.154-6.116l0.051-0.107l-0.053,0.106
		c-19.13-9.354-40.988-16.831-68.789-23.527c-5.492-1.346-11.096-2.636-16.516-3.884c-6.235-1.436-12.684-2.921-19.005-4.499
		c-11.526-2.93-23.689-6.281-34.586-12.153c-2.589-1.5-5.31-3.127-7.757-5.152c-0.552-0.399-1.128-0.894-1.791-1.537
		c-0.189-0.185-0.385-0.363-0.58-0.542c-0.379-0.348-0.771-0.706-1.124-1.107l-0.236-0.273c-0.938-1.086-1.907-2.209-2.68-3.472
		c-0.689-0.927-1.23-1.987-1.753-3.012c-0.183-0.357-0.365-0.715-0.554-1.067c-0.158-0.383-0.299-0.72-0.439-1.056
		c-0.456-1.089-0.927-2.214-1.249-3.383c-1.018-3.042-1.554-6.163-1.98-9.079c-1.231-10.076-0.822-20.268-0.425-30.123
		c0.088-2.182,0.175-4.36,0.246-6.537c0.449-11.65,0.747-24.114-0.107-36.346c-0.827-12.495-2.795-24.503-5.851-35.694
		c-1.46-5.312-3.263-10.781-5.673-17.21c-2.326-6.381-4.264-12.047-5.926-17.326c-4.1-12.973-6.824-24.663-8.329-35.736
		c-1.837-13.521-1.787-25.559,0.156-36.804c1.241-6.944,2.883-12.782,5.02-17.851l0.843-2.141l1.021-2.115
		c0.248-0.492,0.48-0.982,0.713-1.473c0.424-0.893,0.862-1.816,1.367-2.694l0.73-1.245c1.3-2.224,2.644-4.524,4.243-6.625
		c6.518-9.377,15.685-17.738,27.235-24.834c9.696-5.948,20.718-10.792,33.695-14.807c12.237-3.78,24.39-6.146,36.119-7.031
		c12.059-0.878,24.429-0.458,36.773,1.246c23.2,3.238,46.611,10.893,69.585,22.75c21.33,10.977,41.6,24.96,60.246,41.562
		c20.238,18.184,35.733,36.421,47.375,55.755c3.126,5.143,5.955,10.661,8.407,16.397c2.559,5.913,4.479,12.115,6.019,17.402
		c3.021,11.075,5.106,22.894,6.377,36.14c2.097,23.814,1.261,48.406-2.483,73.095c-1.855,12.343-4.534,24.376-7.963,35.765
		c-1.838,6.022-3.967,11.826-6.329,17.252c-3.03,6.853-5.834,11.812-9.092,16.082c-3.783,5.021-8.832,8.901-13.68,12.444
		c-4.778,3.394-9.894,6.542-15.642,9.631c-10.615,5.682-21.989,10.405-33.809,14.04c-12.836,3.914-24.595,6.118-35.948,6.74
		C395.727,632.96,393.821,633.01,391.962,633.01z M362.209,626.065c9.672,4.584,21.251,6.396,35.398,5.55
		c11.238-0.717,22.869-3.006,35.555-6.998c11.685-3.709,22.912-8.489,33.369-14.207c5.648-3.101,10.665-6.251,15.338-9.633
		c4.684-3.486,9.559-7.298,13.111-12.113c3.16-4.234,5.941-9.212,8.756-15.666c2.31-5.347,4.39-11.071,6.182-17.014
		c3.36-11.287,5.977-23.214,7.776-35.448c3.639-24.491,4.393-48.874,2.243-72.473c-1.293-13.069-3.386-24.726-6.397-35.633
		c-1.527-5.181-3.43-11.264-5.948-17.035c-2.421-5.612-5.206-11-8.277-16.017c-11.541-19.041-26.902-37.001-46.963-54.91
		c-18.486-16.36-38.569-30.125-59.688-40.911c-22.665-11.612-45.725-19.077-68.54-22.188c-12.191-1.697-24.31-2.142-36.021-1.323
		c-11.478,0.832-23.382,3.111-35.383,6.776c-12.719,3.891-23.508,8.589-32.983,14.363c-11.192,6.828-20.067,14.863-26.378,23.884
		c-1.521,1.984-2.806,4.164-4.048,6.272l-0.758,1.282c-0.47,0.812-0.888,1.687-1.292,2.532c-0.233,0.488-0.466,0.976-0.711,1.458
		l-0.983,2.016l-0.816,2.059c-2.097,4.923-3.651,10.387-4.894,17.206c-1.924,10.926-2.005,22.667-0.249,35.891
		c1.449,10.921,4.103,22.462,8.113,35.282c1.629,5.231,3.537,10.865,5.832,17.223c2.387,6.43,4.249,12.139,5.689,17.448
		c3.068,11.374,5.028,23.564,5.825,36.232c0.824,12.352,0.486,24.896-0.001,36.613c-0.077,2.139-0.169,4.283-0.262,6.428
		c-0.425,9.827-0.865,19.989,0.309,29.825c0.401,2.8,0.906,5.8,1.866,8.694c0.293,1.079,0.722,2.112,1.137,3.112
		c0.144,0.348,0.288,0.696,0.427,1.046c0.172,0.313,0.358,0.681,0.544,1.048c0.472,0.93,0.959,1.892,1.579,2.726
		c3.13,4.979,8.258,8.427,13.337,11.416c10.611,5.847,22.599,9.262,33.967,12.258c6.285,1.629,12.713,3.17,18.93,4.66
		c5.413,1.298,11.01,2.64,16.499,4.036C321.234,608.806,343.099,616.505,362.209,626.065z M299.62,258.729
		c8.11,0,16.354,0.578,24.63,1.73c22.917,3.125,46.077,10.621,68.833,22.28c21.187,10.82,41.334,24.629,59.88,41.042
		c20.131,17.972,35.55,36.001,47.138,55.12c3.093,5.051,5.897,10.479,8.336,16.129c2.537,5.816,4.451,11.933,5.988,17.148
		c3.027,10.966,5.13,22.673,6.429,35.798c2.156,23.675,1.4,48.132-2.249,72.695c-1.806,12.277-4.432,24.247-7.806,35.577
		c-1.802,5.979-3.895,11.736-6.219,17.116c-2.844,6.521-5.659,11.558-8.86,15.849c-3.627,4.915-8.562,8.774-13.307,12.307
		c-4.708,3.407-9.758,6.578-15.439,9.697c-1.92,1.05-3.865,2.068-5.834,3.054c1.978-0.969,3.933-1.97,5.862-3.002
		c5.714-3.07,10.797-6.199,15.538-9.566c4.787-3.499,9.775-7.331,13.484-12.254c3.214-4.214,5.983-9.115,8.982-15.896
		c2.348-5.391,4.465-11.161,6.291-17.148c3.416-11.345,6.085-23.335,7.934-35.636c3.733-24.617,4.567-49.135,2.478-72.873
		c-1.265-13.19-3.341-24.958-6.346-35.975c-1.531-5.252-3.439-11.42-5.979-17.289c-2.436-5.699-5.245-11.177-8.35-16.285
		c-11.595-19.256-27.034-37.425-47.201-55.545c-18.587-16.549-38.793-30.489-60.055-41.43c-22.881-11.81-46.193-19.433-69.29-22.657
		c-12.279-1.694-24.585-2.11-36.579-1.239c-11.66,0.879-23.744,3.232-35.916,6.992c-12.903,3.992-23.856,8.804-33.485,14.712
		c-11.441,7.029-20.516,15.303-26.973,24.591c-1.577,2.071-2.907,4.347-4.193,6.547l-0.729,1.243
		c-0.484,0.843-0.914,1.749-1.331,2.626c-0.236,0.497-0.472,0.995-0.72,1.486l-1.003,2.076l-0.833,2.12
		c-2.114,5.015-3.737,10.789-4.966,17.663c-1.925,11.148-1.975,23.095-0.149,36.521c1.497,11.021,4.21,22.661,8.294,35.583
		c1.658,5.266,3.592,10.919,5.912,17.283c2.418,6.452,4.229,11.946,5.697,17.287c3.072,11.251,5.051,23.321,5.882,35.875
		c0.856,12.273,0.558,24.768,0.108,36.44c-0.07,2.176-0.158,4.357-0.246,6.542c-0.395,9.818-0.803,19.972,0.417,29.964
		c0.418,2.863,0.945,5.936,1.948,8.934c0.313,1.136,0.773,2.233,1.218,3.295c0.142,0.34,0.285,0.68,0.422,1.021
		c0.171,0.313,0.356,0.677,0.542,1.039c0.506,0.992,1.03,2.018,1.696,2.917c0.757,1.232,1.701,2.326,2.614,3.384l0.234,0.271
		c0.316,0.36,0.673,0.687,1.05,1.032c0.202,0.185,0.404,0.37,0.601,0.561c0.629,0.613,1.174,1.08,1.712,1.471
		c2.416,1.998,5.1,3.603,7.643,5.075c10.801,5.82,22.418,9.028,34.362,12.064c2.344,0.586,4.707,1.158,7.07,1.721
		c-2.359-0.584-4.716-1.178-7.055-1.784c-11.426-3.011-23.475-6.444-34.19-12.348c-5.19-3.055-10.425-6.581-13.64-11.696
		c-0.646-0.868-1.151-1.865-1.64-2.829c-0.183-0.36-0.366-0.721-0.557-1.076c-0.16-0.394-0.302-0.737-0.445-1.081
		c-0.426-1.026-0.866-2.089-1.167-3.2c-0.975-2.938-1.489-5.986-1.897-8.839c-1.185-9.922-0.743-20.121-0.316-29.985
		c0.093-2.143,0.186-4.284,0.262-6.424c0.487-11.693,0.824-24.209,0.003-36.518c-0.793-12.608-2.744-24.737-5.795-36.051
		c-1.434-5.281-3.287-10.964-5.665-17.372c-2.301-6.375-4.213-12.021-5.846-17.265c-4.026-12.871-6.691-24.461-8.147-35.435
		c-1.769-13.318-1.686-25.151,0.255-36.174c1.257-6.89,2.829-12.416,4.949-17.394l0.826-2.081l1.001-2.054
		c0.245-0.482,0.475-0.963,0.705-1.444c0.412-0.862,0.838-1.753,1.329-2.601l0.759-1.283c1.256-2.132,2.555-4.337,4.099-6.35
		c6.372-9.109,15.339-17.231,26.641-24.125c9.542-5.814,20.4-10.543,33.193-14.458c12.066-3.685,24.039-5.977,35.586-6.814
		C291.859,258.862,295.724,258.729,299.62,258.729z"/>
</g>
</svg>