<?xml version="1.0" encoding="utf-8"?>
<!-- Generator: Adobe Illustrator 21.1.0, SVG Export Plug-In . SVG Version: 6.00 Build 0)  -->
<svg version="1.1" id="Ebene_1" xmlns="http://www.w3.org/2000/svg" xmlns:xlink="http://www.w3.org/1999/xlink" x="0px" y="0px"
	 viewBox="0 0 54.3 56.9" style="enable-background:new 0 0 54.3 56.9;" xml:space="preserve">
<style type="text/css">
	.st0{clip-path:url(#SVGID_2_);fill:#EF9A0A;}
	.st1{clip-path:url(#SVGID_2_);fill:none;stroke:#FFFFFF;stroke-width:2;}
	.st2{clip-path:url(#SVGID_2_);fill:#003C46;}
</style>
<g>
	<defs>
		<rect id="SVGID_1_" y="0.1" width="54.3" height="56.9"/>
	</defs>
	<clipPath id="SVGID_2_">
		<use xlink:href="#SVGID_1_"  style="overflow:visible;"/>
	</clipPath>
	<path class="st0" d="M52.6,8c-3-1.1-30-7-35,1s-13,36-5,41s49,0,55-2S88.6,21,52.6,8"/>
	<path class="st1" d="M52.6,8c-3-1.1-30-7-35,1s-13,36-5,41s49,0,55-2S88.6,21,52.6,8z"/>
	<path class="st2" d="M16.4,14.6c-3.2,0-8.6,0-11.5,4C2.2,22.1,0.9,24.9,2,28.7c1.3,4.9,3.8,7.9,7,8.7c3,0.8,7.7,0.3,9.9,0.1
		c0.3,0,0.6-0.1,0.8-0.1c2.6,1.9,5.1,3.8,7.7,5.7l2.2,1.7L28.9,42c-0.5-2.1-1.1-4.3-1.6-6.4c1.5-0.6,4.4-2.1,5.2-4.4
		c0.7-2,2-8.9-0.1-12.7c-0.8-1.4-1.9-2.3-3.3-2.6C23.6,14.6,19.9,14.6,16.4,14.6"/>
	<path class="st1" d="M16.4,14.6c-3.2,0-8.6,0-11.5,4C2.2,22.1,0.9,24.9,2,28.7c1.3,4.9,3.8,7.9,7,8.7c3,0.8,7.7,0.3,9.9,0.1
		c0.3,0,0.6-0.1,0.8-0.1c2.6,1.9,5.1,3.8,7.7,5.7l2.2,1.7L28.9,42c-0.5-2.1-1.1-4.3-1.6-6.4c1.5-0.6,4.4-2.1,5.2-4.4
		c0.7-2,2-8.9-0.1-12.7c-0.8-1.4-1.9-2.3-3.3-2.6C23.6,14.6,19.9,14.6,16.4,14.6z"/>
</g>
</svg>
