<svg id="Ebene_1" data-name="Ebene 1" xmlns="http://www.w3.org/2000/svg" width="241.99996" height="104.7407" viewBox="0 0 241.99996 104.7407">
  <defs>
    <style>
      .cls-1 {
        fill: #f09b0a;
      }

      .cls-2 {
        fill: #003c46;
      }
    </style>
  </defs>
  <title>musicschool-cml-logo</title>
  <path class="cls-1" d="M234.32984,86.83292a12.07011,12.07011,0,0,1-2.317.199h-1.5575V88.5303h.87874c.26,0,.33985.12017.33985.599v5.61319c0,.45908-.12017.51917-.33985.51917h-.87874V96.759h5.033V95.26162h-.77827c-.21968,0-.33985-.06008-.33985-.51917V91.70632c0-2.17712.77922-3.176,2.117-3.176,1.09841,0,1.59786.57925,1.59786,1.93772v4.27444c0,.45908-.12017.51917-.33985.51917H236.967V96.759H242V95.26162h-.87874c-.21966,0-.33985-.06008-.33985-.51917V90.40794c0-2.43717-1.0984-3.6351-3.15534-3.6351a3.34066,3.34066,0,0,0-3.29619,1.99686Zm-12.40366,0a12.07011,12.07011,0,0,1-2.317.199h-1.5575V88.5303h.87874c.26,0,.33985.12017.33985.599v5.61319c0,.45908-.12017.51917-.33985.51917h-.87874V96.759h5.033V95.26162h-.77829c-.21968,0-.33985-.06008-.33985-.51917V91.70632c0-2.17712.77922-3.176,2.117-3.176,1.09841,0,1.59786.57925,1.59786,1.93772v4.27444c0,.45908-.11923.51917-.33891.51917h-.77922V96.759h5.033V95.26162h-.87872c-.21969,0-.33985-.06008-.33985-.51917V90.40794c0-2.43717-1.09841-3.6351-3.15537-3.6351a3.34066,3.34066,0,0,0-3.29619,1.99686ZM215.53565,96.759h1.63729V95.26162h-.93882c-.2591,0-.33891-.12017-.33891-.599V87.03195H211.8799V88.5303h.97919c.21968,0,.33891.06008.33891.51917V92.4048c0,1.85792-.71914,2.89625-2.05694,2.89625-1.01862,0-1.59788-.4788-1.59788-1.89735V87.03195h-3.93458V88.5303h.89845c.2,0,.32014.06008.32014.51917v4.41432c0,2.4766,1.13784,3.5553,3.17507,3.5553a3.328,3.328,0,0,0,3.19574-1.83727V96.959a12.48534,12.48534,0,0,1,2.33766-.2m-15.53931-9.92612a12.50208,12.50208,0,0,1-2.33766.199H196.0411V88.5303h.93882c.26,0,.33985.12017.33985.599v5.61319c0,.45908-.12017.51917-.33985.51917h-.87874V96.759h5.19259V95.26162H200.355c-.21968,0-.33891-.06008-.33891-.51917V91.68567c0-2.03723.67876-3.25488,1.99686-3.25488a.99852.99852,0,0,1,.659.199,1.32437,1.32437,0,0,0,.39995,2.59677,1.89308,1.89308,0,0,0,1.89735-2.09732,2.18619,2.18619,0,0,0-2.33672-2.35643,2.677,2.677,0,0,0-2.6362,2.19683ZM189.69,95.32171c-1.41854,0-2.41745-1.11907-2.41745-3.27647v-.29948c0-2.17712.97919-3.27554,2.41745-3.27554,1.4777,0,2.43623,1.11907,2.43623,3.27554v.29948c0,2.1574-.95853,3.27647-2.43623,3.27647m.85808,1.69738c2.65686,0,4.37489-2.03723,4.37489-5.13345,0-3.09528-1.63823-5.1128-4.25472-5.1128a3.47471,3.47471,0,0,0-3.39571,2.09732V83.29733a12.54812,12.54812,0,0,1-2.35643.2h-1.59786v1.49741h.91816c.26,0,.33985.12017.33985.599v7.85039a28.73757,28.73757,0,0,1-.09952,3.315h1.51807l.73885-2.25692a3.76055,3.76055,0,0,0,3.81441,2.517m-13.00262-1.59787c-1.69738,0-2.45689-1.059-2.45689-3.3957v-.25911c0-2.33766.77922-3.3957,2.4766-3.3957,1.67767,0,2.45689,1.058,2.45689,3.3957v.25911c0,2.317-.77922,3.3957-2.4766,3.3957m-.01973,1.59787a5.12375,5.12375,0,1,0-5.15317-5.13345,4.89064,4.89064,0,0,0,5.15317,5.13345m-7.73022-.01972a6.12262,6.12262,0,0,0,1.73775-.26005V95.20154a2.62354,2.62354,0,0,1-.91816.1596c-.859,0-1.2383-.35957-1.2383-1.41761V88.5303h1.99686V87.03195h-1.93772V84.27558h-1.857l-.2,1.75841c-.07979.71819-.51916.97825-1.19793,1.09842.05915,0-.75949.06008-.75949.06008V88.5303h1.31809V93.983c0,2.17712.859,3.01642,3.05586,3.01642m-6.91063,0a6.1227,6.1227,0,0,0,1.73775-.26005V95.20154a2.62363,2.62363,0,0,1-.91817.1596c-.859,0-1.2383-.35957-1.2383-1.41761V88.5303H164.463V87.03195H162.5253V84.27558h-1.857l-.2,1.75841c-.07981.71819-.51917.97825-1.19793,1.09842.05915,0-.75951.06008-.75951.06008V88.5303H159.829V93.983c0,2.17712.859,3.01642,3.05586,3.01642m-11.90327-1.69832c-2.49726,0-3.81536-1.41761-3.81536-4.69315v-.9191c0-3.27553,1.35847-4.73352,3.85479-4.73352,2.45689,0,3.79471,1.458,3.79471,4.73352v.9191c0,3.27554-1.33782,4.69315-3.83413,4.69315m-.04037,1.718c3.97495,0,6.71159-2.716,6.71159-6.87121,0-4.174-2.45688-6.91064-6.59143-6.91064-3.99467,0-6.77169,2.75637-6.77169,6.91064,0,4.15521,2.4766,6.87121,6.65153,6.87121"/>
  <g>
    <path class="cls-2" d="M64.35916,27.88786h1.89078c.48161,0,.65342-.1718.65342-.997V11.17972c0-.79049-.17181-.96323-.65342-.96323H64.35916V7.6385H73.538L78.5231,22.83421,83.9213,7.6385h8.80048v2.578h-1.719c-.48068,0-.65248.17274-.65248.96323V26.89084c0,.82522.1718.997.65248.997h1.719v2.578H83.30261v-2.578h1.75278c.48161,0,.65342-.1718.65342-.997v-16.158l-7.013,19.733h-2.6822l-6.291-19.28613V26.89084c0,.82522.1718.997.65342.997h1.856v2.578H64.35916Z"/>
    <path class="cls-2" d="M107.36264,30.81011v-3.0596a5.7276,5.7276,0,0,1-5.50053,3.16287c-3.50648,0-5.46674-1.857-5.46674-6.11921V17.19632c0-.79142-.2056-.89469-.55015-.89469H94.29805v-2.578h6.77357V24.6909c0,2.44092.99608,3.26615,2.7498,3.26615,2.30386,0,3.54122-1.78845,3.54122-4.98513V17.19632c0-.79142-.20654-.89469-.58488-.89469h-1.68424v-2.578h6.91064V26.85675c0,.82523.13707,1.03082.58395,1.03082h1.61571v2.57893h-2.81833a21.43642,21.43642,0,0,0-4.02283.3436"/>
    <path class="cls-2" d="M116.1251,25.03441h3.50648v3.09435a10.69964,10.69964,0,0,0,3.02581.3436c1.994,0,3.33468-.65342,3.33468-2.23438,0-1.65044-1.68424-2.06258-3.95336-2.47566-2.95728-.55015-5.98215-1.4439-5.98215-5.01892,0-3.26615,2.64653-5.46673,7.426-5.46673a16.48343,16.48343,0,0,1,6.25628,1.34063v4.435H126.2324V16.16446a7.93632,7.93632,0,0,0-2.61273-.41214c-2.06257,0-3.26614.79048-3.26614,2.13111,0,1.68424,1.719,1.89078,3.91955,2.30386,2.99108.58395,6.01595,1.4777,6.01595,5.12219,0,3.36941-2.78454,5.6038-7.56311,5.6038a18.46673,18.46673,0,0,1-6.60082-1.37536Z"/>
    <path class="cls-2" d="M134.13611,9.35748a2.76415,2.76415,0,0,1,2.88781-2.81927,2.82008,2.82008,0,1,1,0,5.63854,2.76414,2.76414,0,0,1-2.88781-2.81927m-1.51243,18.53038h1.54717c.37834,0,.55015-.1718.55015-.89375V17.67728c0-1.06555-.1718-1.37536-.75669-1.37536h-1.34063v-2.578h2.75073a21.33615,21.33615,0,0,0,4.02189-.34454V26.99411c0,.72195.1718.89375.55015.89375h1.44391v2.578h-8.76668Z"/>
    <path class="cls-2" d="M156.58353,17.47092c-.51542-1.03176-1.65045-1.58191-3.575-1.58191-3.09433,0-4.77951,1.994-4.77951,5.74181V22.181c0,3.85009,1.51337,5.94741,4.60678,5.94741a4.52794,4.52794,0,0,0,4.74479-3.26615l2.578,1.20357c-1.03083,2.78453-3.19667,4.84711-7.49458,4.84711-5.91268,0-9.145-3.26614-9.145-8.86995,0-5.46579,3.43794-8.76668,9.21448-8.76668,4.81239,0,7.70019,2.23532,7.70019,5.70707,0,2.26912-1.40917,3.713-3.36849,3.713a2.56072,2.56072,0,0,1-2.716-2.54419,2.63661,2.63661,0,0,1,2.23439-2.68127"/>
    <path class="cls-2" d="M64.97812,61.62211V56.29338h3.78156v3.85009a14.29482,14.29482,0,0,0,4.64151.65342c2.33765,0,4.09136-1.03082,4.09136-3.19761,0-2.40619-1.75371-2.8878-5.53527-3.78156-4.3317-1.03082-6.97917-2.61273-6.97917-6.60083,0-4.64058,3.36941-7.35657,9.11028-7.35657a18.495,18.495,0,0,1,7.25425,1.4777v5.67327h-3.713V43.057a16.09246,16.09246,0,0,0-3.50648-.41214c-2.99108,0-4.64151,1.16883-4.64151,3.33468s1.37536,2.716,5.22546,3.60975c3.9543.92849,7.46078,2.13112,7.46078,6.56609,0,4.40118-3.30088,7.426-8.97322,7.426a17.25358,17.25358,0,0,1-8.21653-1.95931"/>
    <path class="cls-2" d="M97.91,50.13933c-.51541-1.03176-1.65044-1.58191-3.575-1.58191-3.09434,0-4.77858,1.994-4.77858,5.74181v.55015c0,3.85009,1.51244,5.94741,4.60678,5.94741A4.52685,4.52685,0,0,0,98.907,57.53065l2.578,1.20357c-1.03082,2.78453-3.19667,4.84711-7.49458,4.84711-5.91267,0-9.14408-3.26615-9.14408-8.86995,0-5.4658,3.437-8.76668,9.21355-8.76668,4.81238,0,7.70019,2.23533,7.70019,5.70707,0,2.26912-1.40916,3.713-3.36848,3.713a2.56073,2.56073,0,0,1-2.716-2.54419A2.63661,2.63661,0,0,1,97.91,50.13933"/>
    <path class="cls-2" d="M109.62988,49.24549a5.70783,5.70783,0,0,1,5.6038-3.30088c3.575,0,5.432,2.02878,5.432,6.18868v7.52932c0,.79048.20654.89375.58488.89375H122.763v2.578h-8.66341v-2.578h1.34063c.37834,0,.58395-.10327.58395-.89375V52.33983c0-2.33765-.82428-3.36942-2.7498-3.36942-2.30386,0-3.64449,1.82225-3.64449,5.53527v5.15693c0,.79048.20653.89375.58488.89375h1.34063v2.578H102.892v-2.578h1.51244c.37834,0,.58395-.10327.58395-.89375V43.91676c0-.82522-.13707-1.03176-.58395-1.03176h-1.61571V40.307h2.85307a20.72052,20.72052,0,0,0,3.9881-.3436Z"/>
    <path class="cls-2" d="M137.61086,54.98654v-.44688c0-4.0219-1.34063-5.84414-4.22843-5.84414-2.92255,0-4.26317,1.82225-4.26317,5.84414v.44688c0,4.02283,1.30683,5.84508,4.22936,5.84508,2.92161,0,4.26224-1.857,4.26224-5.84508M124.444,54.74621c0-5.22546,3.60974-8.80142,9.007-8.80142,5.26019,0,8.80142,3.54122,8.80142,8.80142s-3.575,8.83522-8.93848,8.83522c-5.32874,0-8.86995-3.54122-8.86995-8.83522"/>
    <path class="cls-2" d="M157.61622,54.98654v-.44688c0-4.0219-1.34063-5.84414-4.22843-5.84414-2.9216,0-4.26317,1.82225-4.26317,5.84414v.44688c0,4.02283,1.30683,5.84508,4.22936,5.84508,2.92161,0,4.26224-1.857,4.26224-5.84508m-13.16691-.24034c0-5.22546,3.60974-8.80142,9.007-8.80142,5.26019,0,8.80142,3.54122,8.80142,8.80142s-3.575,8.83522-8.93848,8.83522c-5.32874,0-8.86995-3.54122-8.86995-8.83522"/>
    <path class="cls-2" d="M163.90462,60.55636h1.54717c.3436,0,.55015-.10327.55015-.89375V43.91676c0-.82523-.138-1.03176-.55015-1.03176h-1.61571V40.307h2.81927a21.43282,21.43282,0,0,0,4.02189-.3436v19.6992c0,.79049.20654.89375.55015.89375h1.37538v2.578h-8.69814Z"/>
    <path class="cls-2" d="M64.08615,85.37279c0-7.21951,4.26316-11.89482,10.62365-11.89482,3.16288,0,5.39726,1.40916,6.39429,4.02189l.96229-3.575h2.75074v8.49161H80.86281c-.65248-4.19464-2.50946-5.98215-5.6376-5.98215-4.12517,0-6.15395,2.92254-6.15395,8.3198v1.16883c0,5.39726,2.13111,8.3198,6.291,8.3198,3.8163,0,6.15395-1.92551,6.46376-5.98215l3.12814.34361c-.13706,4.40118-3.12814,8.59487-9.69423,8.59487-6.87591,0-11.17381-4.3655-11.17381-11.82629"/>
    <path class="cls-2" d="M87.49425,94.17392H89.385c.48161,0,.65342-.1718.65342-.997V77.46578c0-.79048-.17181-.96323-.65342-.96323H87.49425v-2.578h9.17882l4.98512,15.1957,5.3982-15.1957h8.80048v2.578h-1.719c-.48068,0-.65248.17274-.65248.96323V93.1769c0,.82522.1718.997.65248.997h1.719v2.578h-9.41916v-2.578h1.75278c.48161,0,.65342-.1718.65342-.997v-16.158L101.83,96.75191H99.14873l-6.291-19.28613V93.1769c0,.82522.1718.997.65342.997h1.856v2.578H87.49425Z"/>
    <path class="cls-2" d="M117.81168,94.17392h1.719c.48161,0,.65342-.1718.65342-.997V77.46578c0-.79048-.1718-.96323-.65342-.96323h-1.719v-2.578h9.62663v2.578h-1.89079c-.48161,0-.65342.17274-.65342.96323V94.17392h4.46877c1.44391,0,1.96026-.1718,2.13207-1.06556l.65342-3.576h3.02487v7.21951H117.81168Z"/>
    <path class="cls-2" d="M64.35916,27.88786h1.89078c.48161,0,.65342-.1718.65342-.997V11.17972c0-.79049-.17181-.96323-.65342-.96323H64.35916V7.6385H73.538L78.5231,22.83421,83.9213,7.6385h8.80048v2.578h-1.719c-.48068,0-.65248.17274-.65248.96323V26.89084c0,.82522.1718.997.65248.997h1.719v2.578H83.30261v-2.578h1.75278c.48161,0,.65342-.1718.65342-.997v-16.158l-7.013,19.733h-2.6822l-6.291-19.28613V26.89084c0,.82522.1718.997.65342.997h1.856v2.578H64.35916Z"/>
    <path class="cls-2" d="M107.36264,30.81011v-3.0596a5.7276,5.7276,0,0,1-5.50053,3.16287c-3.50648,0-5.46674-1.857-5.46674-6.11921V17.19632c0-.79142-.2056-.89469-.55015-.89469H94.29805v-2.578h6.77357V24.6909c0,2.44092.99608,3.26615,2.7498,3.26615,2.30386,0,3.54122-1.78845,3.54122-4.98513V17.19632c0-.79142-.20654-.89469-.58488-.89469h-1.68424v-2.578h6.91064V26.85675c0,.82523.13707,1.03082.58395,1.03082h1.61571v2.57893h-2.81833a21.43642,21.43642,0,0,0-4.02283.3436"/>
    <path class="cls-2" d="M116.1251,25.03441h3.50648v3.09435a10.69964,10.69964,0,0,0,3.02581.3436c1.994,0,3.33468-.65342,3.33468-2.23438,0-1.65044-1.68424-2.06258-3.95336-2.47566-2.95728-.55015-5.98215-1.4439-5.98215-5.01892,0-3.26615,2.64653-5.46673,7.426-5.46673a16.48343,16.48343,0,0,1,6.25628,1.34063v4.435H126.2324V16.16446a7.93632,7.93632,0,0,0-2.61273-.41214c-2.06257,0-3.26614.79048-3.26614,2.13111,0,1.68424,1.719,1.89078,3.91955,2.30386,2.99108.58395,6.01595,1.4777,6.01595,5.12219,0,3.36941-2.78454,5.6038-7.56311,5.6038a18.46673,18.46673,0,0,1-6.60082-1.37536Z"/>
    <path class="cls-2" d="M134.13611,9.35748a2.76415,2.76415,0,0,1,2.88781-2.81927,2.82008,2.82008,0,1,1,0,5.63854,2.76414,2.76414,0,0,1-2.88781-2.81927m-1.51243,18.53038h1.54717c.37834,0,.55015-.1718.55015-.89375V17.67728c0-1.06555-.1718-1.37536-.75669-1.37536h-1.34063v-2.578h2.75073a21.33615,21.33615,0,0,0,4.02189-.34454V26.99411c0,.72195.1718.89375.55015.89375h1.44391v2.578h-8.76668Z"/>
    <path class="cls-2" d="M156.58353,17.47092c-.51542-1.03176-1.65045-1.58191-3.575-1.58191-3.09433,0-4.77951,1.994-4.77951,5.74181V22.181c0,3.85009,1.51337,5.94741,4.60678,5.94741a4.52794,4.52794,0,0,0,4.74479-3.26615l2.578,1.20357c-1.03083,2.78453-3.19667,4.84711-7.49458,4.84711-5.91268,0-9.145-3.26614-9.145-8.86995,0-5.46579,3.43794-8.76668,9.21448-8.76668,4.81239,0,7.70019,2.23532,7.70019,5.70707,0,2.26912-1.40917,3.713-3.36849,3.713a2.56072,2.56072,0,0,1-2.716-2.54419,2.63661,2.63661,0,0,1,2.23439-2.68127"/>
    <path class="cls-2" d="M64.97812,61.62211V56.29338h3.78156v3.85009a14.29482,14.29482,0,0,0,4.64151.65342c2.33765,0,4.09136-1.03082,4.09136-3.19761,0-2.40619-1.75371-2.8878-5.53527-3.78156-4.3317-1.03082-6.97917-2.61273-6.97917-6.60083,0-4.64058,3.36941-7.35657,9.11028-7.35657a18.495,18.495,0,0,1,7.25425,1.4777v5.67327h-3.713V43.057a16.09246,16.09246,0,0,0-3.50648-.41214c-2.99108,0-4.64151,1.16883-4.64151,3.33468s1.37536,2.716,5.22546,3.60975c3.9543.92849,7.46078,2.13112,7.46078,6.56609,0,4.40118-3.30088,7.426-8.97322,7.426a17.25358,17.25358,0,0,1-8.21653-1.95931"/>
    <path class="cls-2" d="M97.91,50.13933c-.51541-1.03176-1.65044-1.58191-3.575-1.58191-3.09434,0-4.77858,1.994-4.77858,5.74181v.55015c0,3.85009,1.51244,5.94741,4.60678,5.94741A4.52685,4.52685,0,0,0,98.907,57.53065l2.578,1.20357c-1.03082,2.78453-3.19667,4.84711-7.49458,4.84711-5.91267,0-9.14408-3.26615-9.14408-8.86995,0-5.4658,3.437-8.76668,9.21355-8.76668,4.81238,0,7.70019,2.23533,7.70019,5.70707,0,2.26912-1.40916,3.713-3.36848,3.713a2.56073,2.56073,0,0,1-2.716-2.54419A2.63661,2.63661,0,0,1,97.91,50.13933"/>
    <path class="cls-2" d="M109.62988,49.24549a5.70783,5.70783,0,0,1,5.6038-3.30088c3.575,0,5.432,2.02878,5.432,6.18868v7.52932c0,.79048.20654.89375.58488.89375H122.763v2.578h-8.66341v-2.578h1.34063c.37834,0,.58395-.10327.58395-.89375V52.33983c0-2.33765-.82428-3.36942-2.7498-3.36942-2.30386,0-3.64449,1.82225-3.64449,5.53527v5.15693c0,.79048.20653.89375.58488.89375h1.34063v2.578H102.892v-2.578h1.51244c.37834,0,.58395-.10327.58395-.89375V43.91676c0-.82522-.13707-1.03176-.58395-1.03176h-1.61571V40.307h2.85307a20.72052,20.72052,0,0,0,3.9881-.3436Z"/>
    <path class="cls-2" d="M137.61086,54.98654v-.44688c0-4.0219-1.34063-5.84414-4.22843-5.84414-2.92255,0-4.26317,1.82225-4.26317,5.84414v.44688c0,4.02283,1.30683,5.84508,4.22936,5.84508,2.92161,0,4.26224-1.857,4.26224-5.84508M124.444,54.74621c0-5.22546,3.60974-8.80142,9.007-8.80142,5.26019,0,8.80142,3.54122,8.80142,8.80142s-3.575,8.83522-8.93848,8.83522c-5.32874,0-8.86995-3.54122-8.86995-8.83522"/>
    <path class="cls-2" d="M157.61622,54.98654v-.44688c0-4.0219-1.34063-5.84414-4.22843-5.84414-2.9216,0-4.26317,1.82225-4.26317,5.84414v.44688c0,4.02283,1.30683,5.84508,4.22936,5.84508,2.92161,0,4.26224-1.857,4.26224-5.84508m-13.16691-.24034c0-5.22546,3.60974-8.80142,9.007-8.80142,5.26019,0,8.80142,3.54122,8.80142,8.80142s-3.575,8.83522-8.93848,8.83522c-5.32874,0-8.86995-3.54122-8.86995-8.83522"/>
    <path class="cls-2" d="M163.90462,60.55636h1.54717c.3436,0,.55015-.10327.55015-.89375V43.91676c0-.82523-.138-1.03176-.55015-1.03176h-1.61571V40.307h2.81927a21.43282,21.43282,0,0,0,4.02189-.3436v19.6992c0,.79049.20654.89375.55015.89375h1.37538v2.578h-8.69814Z"/>
    <path class="cls-2" d="M64.08615,85.37279c0-7.21951,4.26316-11.89482,10.62365-11.89482,3.16288,0,5.39726,1.40916,6.39429,4.02189l.96229-3.575h2.75074v8.49161H80.86281c-.65248-4.19464-2.50946-5.98215-5.6376-5.98215-4.12517,0-6.15395,2.92254-6.15395,8.3198v1.16883c0,5.39726,2.13111,8.3198,6.291,8.3198,3.8163,0,6.15395-1.92551,6.46376-5.98215l3.12814.34361c-.13706,4.40118-3.12814,8.59487-9.69423,8.59487-6.87591,0-11.17381-4.3655-11.17381-11.82629"/>
    <path class="cls-2" d="M87.49425,94.17392H89.385c.48161,0,.65342-.1718.65342-.997V77.46578c0-.79048-.17181-.96323-.65342-.96323H87.49425v-2.578h9.17882l4.98512,15.1957,5.3982-15.1957h8.80048v2.578h-1.719c-.48068,0-.65248.17274-.65248.96323V93.1769c0,.82522.1718.997.65248.997h1.719v2.578h-9.41916v-2.578h1.75278c.48161,0,.65342-.1718.65342-.997v-16.158L101.83,96.75191H99.14873l-6.291-19.28613V93.1769c0,.82522.1718.997.65342.997h1.856v2.578H87.49425Z"/>
    <path class="cls-2" d="M117.81168,94.17392h1.719c.48161,0,.65342-.1718.65342-.997V77.46578c0-.79048-.1718-.96323-.65342-.96323h-1.719v-2.578h9.62663v2.578h-1.89079c-.48161,0-.65342.17274-.65342.96323V94.17392h4.46877c1.44391,0,1.96026-.1718,2.13207-1.06556l.65342-3.576h3.02487v7.21951H117.81168Z"/>
  </g>
  <g>
    <path class="cls-2" d="M45.319,36.674c-.7933.291-2.04405.70048-3.50861,1.07882,0,0,.19458,2.1892.25466,3.95794,0,0-16.19178.86934-25.00447-1.30308a11.19672,11.19672,0,0,1-.25442,2.793c2.026,1.65983,11.6573,8.69063,28.51283,8.164Z"/>
    <path class="cls-2" d="M45.319,12.00128a54.87425,54.87425,0,0,1-7.83224,7.89661s.778,1.807,1.27084,3.15422c-8.96289,6.49-20.76289,9.34217-24.02059,10.03784a30.178,30.178,0,0,1,1.47207,3.25488,86.92139,86.92139,0,0,0,24.73033-4.788c.2563,1.4777.47316,2.83241.64309,4.16835a30.2992,30.2992,0,0,0,3.7365-1.20545Z"/>
    <path class="cls-2" d="M45.319,68.15055V53.36793c-.62713.01878-1.26177.04506-1.86919.04506-15.15064,0-24.213-5.78218-27.27453-8.13486a23.02982,23.02982,0,0,1-1.948,3.83976c5.61695,9.07555,26.12917,14.71127,26.12917,14.71127-.28352,1.10123-.67876,2.41745-1.10592,3.74964a29.79768,29.79768,0,0,0,6.06852.57174"/>
    <path class="cls-2" d="M33.359,81.74407c-.62056,1.08621-1.24393,2.10765-1.87388,3.0934a36.4381,36.4381,0,0,0,13.83348,1.75465V70.16094c-.1305.00281-.25536.00563-.40839.00563a33.7811,33.7811,0,0,1-6.30568-.628s-.81244,2.34325-1.27434,3.5393c-16.772-4.82271-24.35011-16.5429-26.132-19.70484-.9022,1.13878-1.91613,2.34516-3.06993,3.63792-.36332.40745-.69754.81114-1.03364,1.21483C14.37989,76.21255,33.359,81.74407,33.359,81.74407"/>
    <path class="cls-2" d="M10.86524,96.27274c9.58814,8.66623,29.845,8.57328,34.45367,8.43528V88.612c-.58207.04694-1.38382.09107-2.379.09107a41.6994,41.6994,0,0,1-12.6021-2.10642s-1.39191,1.99376-2.40771,3.20014C10.35546,83.16685,4.8277,67.69325,3.89639,62.65932-5.3688,77.7846,3.9039,89.98078,10.86524,96.27274"/>
    <path class="cls-2" d="M45.319.06477C44.7604.03192,43.95771,0,42.96069,0a48.959,48.959,0,0,0-13.749,1.9809,21.62826,21.62826,0,0,1-2.9723,7.36972,7.96338,7.96338,0,0,1,2.70567,1.01392A61.277,61.277,0,0,1,11.75345,26.592a9.2561,9.2561,0,0,0,.84212,2.45313c.01972.03943.03943.07417.06008.1136,7.06836-2.44938,21.59844-14.4409,21.59844-14.4409A17.77527,17.77527,0,0,1,36.54575,18.029,49.723,49.723,0,0,0,45.319,8.69814Z"/>
    <path class="cls-2" d="M13.05747,16.57444a21.63107,21.63107,0,0,0-1.41668,5.29963c2.00438-2.01282,7.00264-7.31714,9.56374-12.60551l2.81923-.16267a29.33324,29.33324,0,0,0,2.98173-6.3931,24.6379,24.6379,0,0,0-13.948,13.86164"/>
  </g>
</svg>
